/* XPM */
static char * FONT[] = {
/* <Values> */
/* <width/columns> <height/rows> <colors> <chars per pixels>*/
"8 1024 2 1",
/* <Colors> */
"0 c #FFFFFF",
"1 c #000000",
/* <Pixels> */
/* 0  */
"01111000",
"11001100",
"11000000",
"11001100",
"01111000",
"00011000",
"00001100",
"01111000",
/* 1  */
"00000000",
"11001100",
"00000000",
"11001100",
"11001100",
"11001100",
"01111110",
"00000000",
/* 2  */
"00011100",
"00000000",
"01111000",
"11001100",
"11111100",
"11000000",
"01111000",
"00000000",
/* 3  */
"01111110",
"11000011",
"00111100",
"00000110",
"00111110",
"01100110",
"00111111",
"00000000",
/* 4  */
"11001100",
"00000000",
"01111000",
"00001100",
"01111100",
"11001100",
"01111110",
"00000000",
/* 5  */
"11100000",
"00000000",
"01111000",
"00001100",
"01111100",
"11001100",
"01111110",
"00000000",
/* 6  */
"00110000",
"00110000",
"01111000",
"00001100",
"01111100",
"11001100",
"01111110",
"00000000",
/* 7  */
"00000000",
"00000000",
"01111000",
"11000000",
"11000000",
"01111000",
"00001100",
"00111000",
/* 8  */
"01111110",
"11000011",
"00111100",
"01100110",
"01111110",
"01100000",
"00111100",
"00000000",
/* 9  */
"11001100",
"00000000",
"01111000",
"11001100",
"11111100",
"11000000",
"01111000",
"00000000",
/* 10  */
"11100000",
"00000000",
"01111000",
"11001100",
"11111100",
"11000000",
"01111000",
"00000000",
/* 11  */
"11001100",
"00000000",
"01110000",
"00110000",
"00110000",
"00110000",
"01111000",
"00000000",
/* 12  */
"01111100",
"11000110",
"00111000",
"00011000",
"00011000",
"00011000",
"00111100",
"00000000",
/* 13  */
"11100000",
"00000000",
"01110000",
"00110000",
"00110000",
"00110000",
"01111000",
"00000000",
/* 14  */
"11000110",
"00111000",
"01101100",
"11000110",
"11111110",
"11000110",
"11000110",
"00000000",
/* 15  */
"00110000",
"00110000",
"00000000",
"01111000",
"11001100",
"11111100",
"11001100",
"00000000",
/* 16  */
"00011100",
"00000000",
"11111100",
"01100000",
"01111000",
"01100000",
"11111100",
"00000000",
/* 17  */
"00000000",
"00000000",
"01111111",
"00001100",
"01111111",
"11001100",
"01111111",
"00000000",
/* 18  */
"00111110",
"01101100",
"11001100",
"11111110",
"11001100",
"11001100",
"11001110",
"00000000",
/* 19  */
"01111000",
"11001100",
"00000000",
"01111000",
"11001100",
"11001100",
"01111000",
"00000000",
/* 20  */
"00000000",
"11001100",
"00000000",
"01111000",
"11001100",
"11001100",
"01111000",
"00000000",
/* 21  */
"00000000",
"11100000",
"00000000",
"01111000",
"11001100",
"11001100",
"01111000",
"00000000",
/* 22  */
"01111000",
"11001100",
"00000000",
"11001100",
"11001100",
"11001100",
"01111110",
"00000000",
/* 23  */
"00000000",
"11100000",
"00000000",
"11001100",
"11001100",
"11001100",
"01111110",
"00000000",
/* 24  */
"00000000",
"11001100",
"00000000",
"11001100",
"11001100",
"01111100",
"00001100",
"11111000",
/* 25  */
"11000011",
"00011000",
"00111100",
"01100110",
"01100110",
"00111100",
"00011000",
"00000000",
/* 26  */
"11001100",
"00000000",
"11001100",
"11001100",
"11001100",
"11001100",
"01111000",
"00000000",
/* 27  */
"00011000",
"00011000",
"01111110",
"11000000",
"11000000",
"01111110",
"00011000",
"00011000",
/* 28  */
"00111000",
"01101100",
"01100100",
"11110000",
"01100000",
"11100110",
"11111100",
"00000000",
/* 29  */
"11001100",
"11001100",
"01111000",
"11111100",
"00110000",
"11111100",
"00110000",
"00110000",
/* 30  */
"11111000",
"11001100",
"11001100",
"11111010",
"11000110",
"11001111",
"11000110",
"11000111",
/* 31  */
"00001110",
"00011011",
"00011000",
"00111100",
"00011000",
"00011000",
"11011000",
"01110000",
/* 32   */
"00011100",
"00000000",
"01111000",
"00001100",
"01111100",
"11001100",
"01111110",
"00000000",
/* 33 ! */
"00111000",
"00000000",
"01110000",
"00110000",
"00110000",
"00110000",
"01111000",
"00000000",
/* 34 " */
"00000000",
"00011100",
"00000000",
"01111000",
"11001100",
"11001100",
"01111000",
"00000000",
/* 35 # */
"00000000",
"00011100",
"00000000",
"11001100",
"11001100",
"11001100",
"01111110",
"00000000",
/* 36 $ */
"00000000",
"11111000",
"00000000",
"11111000",
"11001100",
"11001100",
"11001100",
"00000000",
/* 37 % */
"11111100",
"00000000",
"11001100",
"11101100",
"11111100",
"11011100",
"11001100",
"00000000",
/* 38 & */
"00111100",
"01101100",
"01101100",
"00111110",
"00000000",
"01111110",
"00000000",
"00000000",
/* 39 ' */
"00111000",
"01101100",
"01101100",
"00111000",
"00000000",
"01111100",
"00000000",
"00000000",
/* 40 ( */
"00110000",
"00000000",
"00110000",
"01100000",
"11000000",
"11001100",
"01111000",
"00000000",
/* 41 ) */
"00000000",
"00000000",
"00000000",
"11111100",
"11000000",
"11000000",
"00000000",
"00000000",
/* 42 * */
"00000000",
"00000000",
"00000000",
"11111100",
"00001100",
"00001100",
"00000000",
"00000000",
/* 43 + */
"11000011",
"11000110",
"11001100",
"11011110",
"00110011",
"01100110",
"11001100",
"00001111",
/* 44 , */
"11000011",
"11000110",
"11001100",
"11011011",
"00110111",
"01101111",
"11001111",
"00000011",
/* 45 - */
"00011000",
"00011000",
"00000000",
"00011000",
"00011000",
"00011000",
"00011000",
"00000000",
/* 46 . */
"00000000",
"00110011",
"01100110",
"11001100",
"01100110",
"00110011",
"00000000",
"00000000",
/* 47 / */
"00000000",
"11001100",
"01100110",
"00110011",
"01100110",
"11001100",
"00000000",
"00000000",
/* 48 0 */
"00100010",
"10001000",
"00100010",
"10001000",
"00100010",
"10001000",
"00100010",
"10001000",
/* 49 1 */
"01010101",
"10101010",
"01010101",
"10101010",
"01010101",
"10101010",
"01010101",
"10101010",
/* 50 2 */
"11011011",
"01110111",
"11011011",
"11101110",
"11011011",
"01110111",
"11011011",
"11101110",
/* 51 3 */
"00011000",
"00011000",
"00011000",
"00011000",
"00011000",
"00011000",
"00011000",
"00011000",
/* 52 4 */
"00011000",
"00011000",
"00011000",
"00011000",
"11111000",
"00011000",
"00011000",
"00011000",
/* 53 5 */
"00011000",
"00011000",
"11111000",
"00011000",
"11111000",
"00011000",
"00011000",
"00011000",
/* 54 6 */
"00110110",
"00110110",
"00110110",
"00110110",
"11110110",
"00110110",
"00110110",
"00110110",
/* 55 7 */
"00000000",
"00000000",
"00000000",
"00000000",
"11111110",
"00110110",
"00110110",
"00110110",
/* 56 8 */
"00000000",
"00000000",
"11111000",
"00011000",
"11111000",
"00011000",
"00011000",
"00011000",
/* 57 9 */
"00110110",
"00110110",
"11110110",
"00000110",
"11110110",
"00110110",
"00110110",
"00110110",
/* 58 : */
"00110110",
"00110110",
"00110110",
"00110110",
"00110110",
"00110110",
"00110110",
"00110110",
/* 59 ; */
"00000000",
"00000000",
"11111110",
"00000110",
"11110110",
"00110110",
"00110110",
"00110110",
/* 60 < */
"00110110",
"00110110",
"11110110",
"00000110",
"11111110",
"00000000",
"00000000",
"00000000",
/* 61 = */
"00110110",
"00110110",
"00110110",
"00110110",
"11111110",
"00000000",
"00000000",
"00000000",
/* 62 > */
"00011000",
"00011000",
"11111000",
"00011000",
"11111000",
"00000000",
"00000000",
"00000000",
/* 63 ? */
"00000000",
"00000000",
"00000000",
"00000000",
"11111000",
"00011000",
"00011000",
"00011000",
/* 64 @ */
"00011000",
"00011000",
"00011000",
"00011000",
"00011111",
"00000000",
"00000000",
"00000000",
/* 65 A */
"00011000",
"00011000",
"00011000",
"00011000",
"11111111",
"00000000",
"00000000",
"00000000",
/* 66 B */
"00000000",
"00000000",
"00000000",
"00000000",
"11111111",
"00011000",
"00011000",
"00011000",
/* 67 C */
"00011000",
"00011000",
"00011000",
"00011000",
"00011111",
"00011000",
"00011000",
"00011000",
/* 68 D */
"00000000",
"00000000",
"00000000",
"00000000",
"11111111",
"00000000",
"00000000",
"00000000",
/* 69 E */
"00011000",
"00011000",
"00011000",
"00011000",
"11111111",
"00011000",
"00011000",
"00011000",
/* 70 F */
"00011000",
"00011000",
"00011111",
"00011000",
"00011111",
"00011000",
"00011000",
"00011000",
/* 71 G */
"00110110",
"00110110",
"00110110",
"00110110",
"00110111",
"00110110",
"00110110",
"00110110",
/* 72 H */
"00110110",
"00110110",
"00110111",
"00110000",
"00111111",
"00000000",
"00000000",
"00000000",
/* 73 I */
"00000000",
"00000000",
"00111111",
"00110000",
"00110111",
"00110110",
"00110110",
"00110110",
/* 74 J */
"00110110",
"00110110",
"11110111",
"00000000",
"11111111",
"00000000",
"00000000",
"00000000",
/* 75 K */
"00000000",
"00000000",
"11111111",
"00000000",
"11110111",
"00110110",
"00110110",
"00110110",
/* 76 L */
"00110110",
"00110110",
"00110111",
"00110000",
"00110111",
"00110110",
"00110110",
"00110110",
/* 77 M */
"00000000",
"00000000",
"11111111",
"00000000",
"11111111",
"00000000",
"00000000",
"00000000",
/* 78 N */
"00110110",
"00110110",
"11110111",
"00000000",
"11110111",
"00110110",
"00110110",
"00110110",
/* 79 O */
"00011000",
"00011000",
"11111111",
"00000000",
"11111111",
"00000000",
"00000000",
"00000000",
/* 80 P */
"00110110",
"00110110",
"00110110",
"00110110",
"11111111",
"00000000",
"00000000",
"00000000",
/* 81 Q */
"00000000",
"00000000",
"11111111",
"00000000",
"11111111",
"00011000",
"00011000",
"00011000",
/* 82 R */
"00000000",
"00000000",
"00000000",
"00000000",
"11111111",
"00110110",
"00110110",
"00110110",
/* 83 S */
"00110110",
"00110110",
"00110110",
"00110110",
"00111111",
"00000000",
"00000000",
"00000000",
/* 84 T */
"00011000",
"00011000",
"00011111",
"00011000",
"00011111",
"00000000",
"00000000",
"00000000",
/* 85 U */
"00000000",
"00000000",
"00011111",
"00011000",
"00011111",
"00011000",
"00011000",
"00011000",
/* 86 V */
"00000000",
"00000000",
"00000000",
"00000000",
"00111111",
"00110110",
"00110110",
"00110110",
/* 87 W */
"00110110",
"00110110",
"00110110",
"00110110",
"11111111",
"00110110",
"00110110",
"00110110",
/* 88 X */
"00011000",
"00011000",
"11111111",
"00011000",
"11111111",
"00011000",
"00011000",
"00011000",
/* 89 Y */
"00011000",
"00011000",
"00011000",
"00011000",
"11111000",
"00000000",
"00000000",
"00000000",
/* 90 Z */
"00000000",
"00000000",
"00000000",
"00000000",
"00011111",
"00011000",
"00011000",
"00011000",
/* 91 [ */
"11111111",
"11111111",
"11111111",
"11111111",
"11111111",
"11111111",
"11111111",
"11111111",
/* 92 \ */
"00000000",
"00000000",
"00000000",
"00000000",
"11111111",
"11111111",
"11111111",
"11111111",
/* 93 ] */
"11110000",
"11110000",
"11110000",
"11110000",
"11110000",
"11110000",
"11110000",
"11110000",
/* 94 ^ */
"00001111",
"00001111",
"00001111",
"00001111",
"00001111",
"00001111",
"00001111",
"00001111",
/* 95 _ */
"11111111",
"11111111",
"11111111",
"11111111",
"00000000",
"00000000",
"00000000",
"00000000",
/* 96 ` */
"00000000",
"00000000",
"01110110",
"11011100",
"11001000",
"11011100",
"01110110",
"00000000",
/* 97 a */
"00000000",
"01111000",
"11001100",
"11111000",
"11001100",
"11111000",
"11000000",
"11000000",
/* 98 b */
"00000000",
"11111100",
"11001100",
"11000000",
"11000000",
"11000000",
"11000000",
"00000000",
/* 99 c */
"00000000",
"11111110",
"01101100",
"01101100",
"01101100",
"01101100",
"01101100",
"00000000",
/* 100 d */
"11111100",
"11001100",
"01100000",
"00110000",
"01100000",
"11001100",
"11111100",
"00000000",
/* 101 e */
"00000000",
"00000000",
"01111110",
"11011000",
"11011000",
"11011000",
"01110000",
"00000000",
/* 102 f */
"00000000",
"01100110",
"01100110",
"01100110",
"01100110",
"01111100",
"01100000",
"11000000",
/* 103 g */
"00000000",
"01110110",
"11011100",
"00011000",
"00011000",
"00011000",
"00011000",
"00000000",
/* 104 h */
"11111100",
"00110000",
"01111000",
"11001100",
"11001100",
"01111000",
"00110000",
"11111100",
/* 105 i */
"00111000",
"01101100",
"11000110",
"11111110",
"11000110",
"01101100",
"00111000",
"00000000",
/* 106 j */
"00111000",
"01101100",
"11000110",
"11000110",
"01101100",
"01101100",
"11101110",
"00000000",
/* 107 k */
"00011100",
"00110000",
"00011000",
"01111100",
"11001100",
"11001100",
"01111000",
"00000000",
/* 108 l */
"00000000",
"00000000",
"01111110",
"11011011",
"11011011",
"01111110",
"00000000",
"00000000",
/* 109 m */
"00000110",
"00001100",
"01111110",
"11011011",
"11011011",
"01111110",
"01100000",
"11000000",
/* 110 n */
"00111000",
"01100000",
"11000000",
"11111000",
"11000000",
"01100000",
"00111000",
"00000000",
/* 111 o */
"01111000",
"11001100",
"11001100",
"11001100",
"11001100",
"11001100",
"11001100",
"00000000",
/* 112 p */
"00000000",
"11111100",
"00000000",
"11111100",
"00000000",
"11111100",
"00000000",
"00000000",
/* 113 q */
"00110000",
"00110000",
"11111100",
"00110000",
"00110000",
"00000000",
"11111100",
"00000000",
/* 114 r */
"01100000",
"00110000",
"00011000",
"00110000",
"01100000",
"00000000",
"11111100",
"00000000",
/* 115 s */
"00011000",
"00110000",
"01100000",
"00110000",
"00011000",
"00000000",
"11111100",
"00000000",
/* 116 t */
"00001110",
"00011011",
"00011011",
"00011000",
"00011000",
"00011000",
"00011000",
"00011000",
/* 117 u */
"00011000",
"00011000",
"00011000",
"00011000",
"00011000",
"11011000",
"11011000",
"01110000",
/* 118 v */
"00110000",
"00110000",
"00000000",
"11111100",
"00000000",
"00110000",
"00110000",
"00000000",
/* 119 w */
"00000000",
"01110110",
"11011100",
"00000000",
"01110110",
"11011100",
"00000000",
"00000000",
/* 120 x */
"00111000",
"01101100",
"01101100",
"00111000",
"00000000",
"00000000",
"00000000",
"00000000",
/* 121 y */
"00000000",
"00000000",
"00000000",
"00011000",
"00011000",
"00000000",
"00000000",
"00000000",
/* 122 z */
"00000000",
"00000000",
"00000000",
"00000000",
"00011000",
"00000000",
"00000000",
"00000000",
/* 123 { */
"00001111",
"00001100",
"00001100",
"00001100",
"11101100",
"01101100",
"00111100",
"00011100",
/* 124 | */
"01111000",
"01101100",
"01101100",
"01101100",
"01101100",
"00000000",
"00000000",
"00000000",
/* 125 } */
"01110000",
"00011000",
"00110000",
"01100000",
"01111000",
"00000000",
"00000000",
"00000000",
/* 126 ~ */
"00000000",
"00000000",
"00111100",
"00111100",
"00111100",
"00111100",
"00000000",
"00000000",
/* 127  */
"00000000",
"00000000",
"00000000",
"00000000",
"00000000",
"00000000",
"00000000",
"00000000",
};
